name N:\Shared_Data\HIL\Data Collection\CoPD-X-MoreData\processed\iteration012\grf0012.mot
datacolumns 19
datarows 23
range 2326.97279 2327.009458
endheader
time	ground_force1_vx	ground_force1_vy	ground_force1_vz	ground_force1_px	ground_force1_py	ground_force1_pz	ground_force2_vx	ground_force2_vy	ground_force2_vz	ground_force2_px	ground_force2_py	ground_force2_pz	ground_torque1_x	ground_torque1_y	ground_torque1_z	ground_torque2_x	ground_torque2_y	ground_torque2_z	
2326.97279	-46.49879909	747.3403785	56.47607004	8.824342691	0	0.1487785558	-12.34880225	27.71739795	8.520779363	9.100589707	0	-0.03044365897	0	9.805650487	0	0	3.072898964	0	
2326.974462	-46.07448898	742.9892835	56.22672956	8.825577711	0	0.1488398419	-13.01529422	32.36484567	9.272310682	9.101927711	0	-0.03044365897	0	9.685908708	0	0	3.390872203	0	
2326.97613	-45.66089208	738.5711546	55.95474713	8.826826049	0	0.1488977204	-13.50734931	37.27081795	9.959105568	9.103265714	0	-0.03044365897	0	9.573447181	0	0	3.693881481	0	
2326.977793	-45.25947109	734.0895779	55.6601969	8.828087457	0	0.1489519832	-13.82559804	42.41669943	10.5781535	9.104603718	0	-0.03044365897	0	9.468633168	0	0	3.980116409	0	
2326.97946	-44.87164792	729.5480343	55.34318742	8.829361651	0	0.1490024237	-13.97763182	47.78842289	11.13015721	9.105941721	0	-0.03044365897	0	9.371811211	0	0	4.248937622	0	
2326.981125	-44.49879781	724.9498844	55.00386084	8.830648321	0	0.1490488372	-13.97639786	53.37664649	11.61881898	9.107279725	0	-0.03044365897	0	9.283301749	0	0	4.500689748	0	
2326.982792	-44.14224346	720.2983545	54.64239207	8.831947121	0	0.1490910223	-13.8384325	59.17650824	12.05000429	9.108617728	0	-0.03044365897	0	9.203399777	0	0	4.736466871	0	
2326.984459	-43.80324925	715.5965223	54.25898782	8.833257677	0	0.1491287812	-13.58210685	65.18705196	12.43087321	9.109955732	0	-0.03044365897	0	9.132373563	0	0	4.957858222	0	
2326.986129	-43.48301549	710.8473047	53.85388569	8.834579584	0	0.1491619208	-13.22602546	71.41042804	12.76905632	9.111293735	0	-0.03044365897	0	9.07046343	0	0	5.16669834	0	
2326.987797	-43.18267286	706.0534455	53.42735311	8.835912408	0	0.1491902529	-12.78768008	77.85097094	13.07193348	9.112631739	0	-0.03044365897	0	9.017880591	0	0	5.364840987	0	
2326.989458	-42.90327689	701.2175044	52.97968638	8.837255684	0	0.1492135958	-12.28242041	84.51424621	13.34605486	9.113969742	0	-0.03044365897	0	8.974806062	0	0	5.553970607	0	
2326.99113	-42.64580267	696.3418469	52.5112096	8.83860892	0	0.1492317745	-11.72276651	91.40614462	13.59672435	9.115307746	0	-0.03044365897	0	8.941389638	0	0	5.735459424	0	
2326.992792	-42.41113971	691.4286351	52.02227357	8.839971595	0	0.1492446214	-11.11805575	98.53208272	13.82774888	9.116645749	0	-0.03044365897	0	8.917748958	0	0	5.91027319	0	
2326.99446	-42.20008706	686.4798201	51.51325476	8.841343162	0	0.1492519777	-10.4743914	105.8963499	14.04134353	9.117983753	0	-0.03044365897	0	8.90396865	0	0	6.078924114	0	
2326.996131	-42.01334856	681.4971348	50.98455418	8.84272305	0	0.1492536933	-9.79484298	113.5016232	14.23817153	9.119321756	0	-0.03044365897	0	8.900099578	0	0	6.241466141	0	
2326.997795	-41.85152847	676.4820882	50.43659631	8.84411066	0	0.1492496284	-9.079837528	121.3486542	14.41749217	9.12065976	0	-0.03044365897	0	8.90615818	0	0	6.397525328	0	
2326.999457	-41.71512735	671.4359612	49.86982798	8.845505372	0	0.1492396531	-8.327677944	129.4361192	14.57738589	9.121997763	0	-0.03044365897	0	8.922125923	0	0	6.546356749	0	
2327.001127	-41.60453828	666.3598031	49.28471728	8.846906542	0	0.1492236492	-7.535126515	137.7606119	14.71502612	9.123335767	0	-0.03044365897	0	8.947948872	0	0	6.686918938	0	
2327.002797	-41.5200434	661.2544299	48.6817525	8.848313507	0	0.1492015098	-6.697998441	146.3167536	14.82696922	9.12467377	0	-0.03044365897	0	8.98353738	0	0	6.817957255	0	
2327.004462	-41.46181085	656.120423	48.06144099	8.849725582	0	0.1491731405	-5.811719787	155.0973891	14.90943824	9.126011774	0	-0.03044365897	0	9.028765912	0	0	6.938088511	0	
2327.006126	-41.42989216	650.9581304	47.42430813	8.851142065	0	0.1491384596	-4.871815589	164.0938392	14.95858103	9.127349777	0	-0.03044365897	0	9.083472998	0	0	7.045880564	0	
2327.007796	-41.42422004	645.7676682	46.77089629	8.852562235	0	0.1490973985	-3.874305585	173.2961803	14.97068922	9.128687781	0	-0.03044365897	0	9.147461332	0	0	7.139922188	0	
2327.009458	-41.44460658	640.5489237	46.10176375	8.853985356	0	0.1490499023	-2.815996273	182.6935261	14.9423697	9.130025784	0	-0.03044365897	0	9.220498001	0	0	7.218880141	0	
